<svg id="Layer_2" data-name="Layer 2" xmlns="http://www.w3.org/2000/svg" viewBox="0 0 77.85 165.53"><defs><style>.cls-1{fill:#ffce00;}.cls-2{fill:#a41d31;}</style></defs><polygon class="cls-1" points="71.13 31.44 61.82 23.75 50.85 30.96 53.82 19.75 45.04 11.53 56.82 11.75 61.73 0 65.82 11.75 77.85 12.31 68.82 19.75 71.13 31.44"/><circle class="cls-2" cx="29.32" cy="67.25" r="12.5"/><path class="cls-2" d="M58.08,113.56a.41.41,0,0,1-.08-.81c2-.43,5.84-2.25,13.25-3,1.79-.17,7.85-.75,11.25-1.29a48.52,48.52,0,0,0,17-6C117.17,91.07,119,61.12,119.44,50a.25.25,0,0,1,.5-.06c2.87,10.07,17.69,70.35-19.59,130.19a.26.26,0,0,1-.48-.2,135.13,135.13,0,0,0,2.63-14.58,136.61,136.61,0,0,0,1-19.85v-.06a5.86,5.86,0,0,0-2.72-3.68c-2.45-1.28-6-.3-8.27,2.71q-2.62,3.34-5.25,6.88c-5.72,7.69-10.86,15.28-15.48,22.69a.25.25,0,0,1-.45-.06c-.77-2.3-3.23-12.71,8.18-28.51C92,128.17,87.85,114.55,58.08,113.56Z" transform="translate(-57.68 -14.75)"/></svg>